HIERARCHY
ROOT Hips
{
	OFFSET 0.000000 0.000000 0.000000
	CHANNELS 6 Xposition Yposition Zposition Zrotation Yrotation Xrotation 
	JOINT LHipJoint
	{
		OFFSET 0.000000 0.000000 0.000000
		CHANNELS 3 Zrotation Yrotation Xrotation
		JOINT LeftUpLeg
		{
			OFFSET 8.178360 -10.767780 5.035740
			CHANNELS 3 Zrotation Yrotation Xrotation
			JOINT LeftLeg
			{
				OFFSET 14.688660 -40.356780 0.000000
				CHANNELS 3 Zrotation Yrotation Xrotation
				JOINT LeftFoot
				{
					OFFSET 15.373200 -42.237540 0.000000
					CHANNELS 3 Zrotation Yrotation Xrotation
					JOINT LeftToeBase
					{
						OFFSET 0.945840 -2.598660 13.935300
						CHANNELS 3 Zrotation Yrotation Xrotation
						End Site
						{
							OFFSET 0.000000 0.000000 0.000000
						}
					}
				}
			}
		}
	}
	JOINT RHipJoint
	{
		OFFSET 0.000000 0.000000 0.000000
		CHANNELS 3 Zrotation Yrotation Xrotation
		JOINT RightUpLeg
		{
			OFFSET -7.833120 -10.767780 5.035740
			CHANNELS 3 Zrotation Yrotation Xrotation
			JOINT RightLeg
			{
				OFFSET -15.255180 -41.913300 0.000000
				CHANNELS 3 Zrotation Yrotation Xrotation
				JOINT RightFoot
				{
					OFFSET -15.409560 -42.337380 0.000000
					CHANNELS 3 Zrotation Yrotation Xrotation
					JOINT RightToeBase
					{
						OFFSET -0.988380 -2.715540 14.178900
						CHANNELS 3 Zrotation Yrotation Xrotation
						End Site
						{
							OFFSET 0.000000 0.000000 0.000000
						}
					}
				}
			}
		}
	}
	JOINT LowerBack
	{
		OFFSET 0.000000 0.000000 0.000000
		CHANNELS 3 Zrotation Yrotation Xrotation
		JOINT Spine
		{
			OFFSET 0.169620 12.213540 -1.160280
			CHANNELS 3 Zrotation Yrotation Xrotation
			JOINT Spine1
			{
				OFFSET 0.340320 12.293100 -0.256500
				CHANNELS 3 Zrotation Yrotation Xrotation
				JOINT Neck
				{
					OFFSET 0.000000 0.000000 0.000000
					CHANNELS 3 Zrotation Yrotation Xrotation
					JOINT Neck1
					{
						OFFSET -0.325020 10.477440 1.032120
						CHANNELS 3 Zrotation Yrotation Xrotation
						JOINT Head
						{
							OFFSET 0.624420 10.568160 -0.743820
							CHANNELS 3 Zrotation Yrotation Xrotation
							End Site
							{
								OFFSET 0.000000 0.000000 0.000000
							}
						}
					}
				}
				JOINT LeftShoulder
				{
					OFFSET 0.000000 0.000000 0.000000
					CHANNELS 3 Zrotation Yrotation Xrotation
					JOINT LeftArm
					{
						OFFSET 20.174460 7.205340 -1.867260
						CHANNELS 3 Zrotation Yrotation Xrotation
						JOINT LeftForeArm
						{
							OFFSET 29.898000 -0.000000 -0.000000
							CHANNELS 3 Zrotation Yrotation Xrotation
							JOINT LeftHand
							{
								OFFSET 20.901360 -0.000000 -0.000000
								CHANNELS 3 Zrotation Yrotation Xrotation
								JOINT LeftFingerBase
								{
									OFFSET 0.000000 0.000000 0.000000
									CHANNELS 3 Zrotation Yrotation Xrotation
									JOINT LeftHandIndex1
									{
										OFFSET 4.291560 -0.000000 -0.000000
										CHANNELS 3 Zrotation Yrotation Xrotation
										End Site
										{
											OFFSET 0.000000 0.000000 0.000000
										}
									}
								}
								JOINT LThumb
								{
									OFFSET 0.000000 0.000000 0.000000
									CHANNELS 3 Zrotation Yrotation Xrotation
									End Site
									{
										OFFSET 0.000000 0.000000 0.000000
									}
								}
							}
						}
					}
				}
				JOINT RightShoulder
				{
					OFFSET 0.000000 0.000000 0.000000
					CHANNELS 3 Zrotation Yrotation Xrotation
					JOINT RightArm
					{
						OFFSET -18.819600 8.244300 -2.427900
						CHANNELS 3 Zrotation Yrotation Xrotation
						JOINT RightForeArm
						{
							OFFSET -31.451400 -0.000000 -0.000000
							CHANNELS 3 Zrotation Yrotation Xrotation
							JOINT RightHand
							{
								OFFSET -20.665020 -0.000000 -0.000000
								CHANNELS 3 Zrotation Yrotation Xrotation
								JOINT RightFingerBase
								{
									OFFSET 0.000000 0.000000 0.000000
									CHANNELS 3 Zrotation Yrotation Xrotation
									JOINT RightHandIndex1
									{
										OFFSET -3.735180 -0.000000 -0.000000
										CHANNELS 3 Zrotation Yrotation Xrotation
										End Site
										{
											OFFSET 0.000000 0.000000 0.000000
										}
									}
								}
								JOINT RThumb
								{
									OFFSET 0.000000 0.000000 0.000000
									CHANNELS 3 Zrotation Yrotation Xrotation
									End Site
									{
										OFFSET 0.000000 0.000000 0.000000
									}
								}
							}
						}
					}
				}
			}
		}
	}
}
MOTION
Frames:	11
Frame Time:	0.0333333
-55.376988 107.601012 63.748626 -12.865123 62.896508 -9.203019 -2.842908 0.048501 0.540157 -13.525304 -1.461986 -27.849398 -1.342903 5.199345 14.153830 -1.446986 8.911719 -0.372867 0.053900 1.498800 4.122400 1.049126 -1.158064 1.705261 23.108538 -5.037501 7.123345 -0.498237 -5.249601 16.942648 0.216854 -2.082618 -0.981888 -0.488900 4.483300 -12.440500 6.513501 2.947735 8.750266 1.843054 4.683275 1.371115 -2.885798 2.425808 -3.692860 -10.474625 -2.662658 -14.691318 3.659885 -1.199810 26.468711 3.823500 -1.501600 16.208900 -5.670033 -1.159963 -1.682326 -83.336183 2.098873 25.373928 25.214209 -33.699487 -9.426772 -0.985267 -2.364821 -0.061020 23.723872 22.622250 11.019600 -7.125000 0.000000 0.000000 -5.378000 57.078000 -1.594600 5.154244 1.350965 -0.963970 78.919737 2.269323 12.135872 -13.469323 20.211058 -2.533704 0.304913 -0.179765 11.439678 -13.445747 6.659183 -1.655800 7.125000 0.000000 0.000000 9.524000 -23.034900 5.106500 
-53.040216 107.382840 64.547988 -14.127529 63.498527 -9.517183 -3.053384 0.182648 0.394773 -10.092085 -7.427160 -25.526856 -1.809523 3.737324 10.057128 -2.999551 15.978528 -3.940393 0.001200 -0.219200 -0.602200 1.026495 -1.222181 1.769682 23.295272 -5.514643 7.893509 -0.411112 -4.935765 16.061137 0.206447 -1.950886 0.124655 -0.584000 4.893100 -13.603900 7.057621 3.058528 8.300634 1.990701 4.856814 1.112951 -3.033956 2.494288 -3.875327 -10.462903 -2.385936 -15.237966 3.785754 -0.758295 26.040245 3.937800 -1.305100 16.102600 -5.852322 -1.074222 -1.722055 -83.351090 3.862173 20.359622 21.831711 -30.145170 -7.163431 -1.122291 -2.371304 2.720361 22.405905 23.037203 10.557200 -7.125000 0.000000 0.000000 -6.976700 57.270900 -2.103900 5.201255 1.293230 -0.993221 77.885458 3.381667 13.202190 -14.185536 21.224551 -2.805881 0.350726 -0.162041 8.911739 -14.516476 6.684347 -1.798300 7.125000 0.000000 0.000000 8.713700 -22.984100 4.672000 
-50.516520 107.140632 65.522844 -15.173733 64.701313 -10.114611 -2.967931 0.149104 0.418466 -10.416999 -5.904103 -26.207492 -1.706499 4.101323 10.995374 -2.840308 15.268474 -3.034582 0.119600 2.229300 6.139900 0.978807 -1.258401 1.790615 23.382805 -6.407841 9.542548 -0.292954 -4.475937 14.783748 0.262975 -2.193605 1.156768 -0.797700 5.700700 -15.918300 6.911979 2.975588 8.072747 2.202265 4.706692 1.018460 -2.643643 2.426312 -3.983770 -10.623102 -2.289584 -15.810388 3.848087 -0.515753 25.464833 4.012500 -1.215100 15.941600 -6.058551 -0.974435 -1.733072 -83.239471 5.309767 15.823982 18.487399 -26.198006 -5.133220 -1.381561 -2.419487 4.814949 22.669400 24.120545 11.211900 -7.125000 0.000000 0.000000 -7.026400 58.565300 -2.338100 5.269991 1.246058 -1.015274 77.126654 4.669899 13.148974 -15.067776 22.454969 -3.158606 0.373959 -0.158545 7.634532 -15.281774 7.059468 -2.002300 7.125000 0.000000 0.000000 8.125100 -22.570600 4.427600 
-47.593752 106.620744 66.504912 -14.603023 65.777832 -9.790628 -2.899259 0.138304 0.593086 -12.887861 -1.726424 -27.092715 -1.445670 4.896227 13.207174 -2.158968 12.400306 -0.219966 0.242400 3.168400 8.747900 0.912635 -1.279051 1.739171 22.725050 -6.451088 11.496997 -0.335003 -4.565032 15.025884 0.341504 -2.616980 1.922927 -0.888600 6.008600 -16.809300 6.263613 2.970603 7.976389 2.128569 4.614251 1.143334 -2.507622 2.404874 -3.771451 -10.900738 -2.454894 -16.506184 4.457908 -0.692499 24.921544 4.316400 -1.235000 15.878600 -6.296721 -0.818181 -1.703289 -82.584003 6.429598 11.433490 15.311285 -22.068109 -3.451499 -1.722574 -2.397550 7.848532 23.398865 25.120372 12.105500 -7.125000 0.000000 0.000000 -6.478800 59.864100 -2.356400 5.309214 1.232886 -1.021525 77.236279 5.702411 12.501014 -16.232962 24.070913 -3.663202 0.369849 -0.139831 6.548456 -15.257104 7.293899 -2.059800 7.125000 0.000000 0.000000 8.141400 -22.342800 4.479500 
-44.240046 106.769196 67.155222 -11.370426 67.105024 -7.090122 -3.007508 0.172695 0.726017 -15.590314 0.098741 -27.077105 -1.303451 5.186712 14.076450 -1.656351 10.852819 4.272985 0.280700 3.407300 9.414800 0.810596 -1.316419 1.673278 20.715719 -6.776478 12.541905 -0.531144 -5.074594 16.444987 0.417911 -3.246805 4.699193 -1.023800 6.436800 -18.057300 5.294112 3.098448 7.976277 1.604921 4.671399 1.128106 -3.118611 2.460947 -3.789477 -10.159189 -2.694627 -16.243045 4.506372 -1.368275 24.300873 4.077200 -1.380800 15.546400 -6.556226 -0.713994 -1.600001 -81.347395 6.962524 5.282420 12.083596 -17.465959 -2.033450 -1.897488 -2.133354 14.613982 20.699443 24.633753 10.437900 -7.125000 0.000000 0.000000 -9.305600 58.644900 -3.121800 5.313632 1.197228 -1.050695 78.178141 5.720362 11.296118 -17.477719 25.740152 -4.231557 0.402465 -0.117922 5.097944 -16.264745 7.309451 -2.203300 7.125000 0.000000 0.000000 7.387300 -22.301000 4.064400 
-40.674780 107.115384 67.779084 -7.595399 69.089779 -3.553150 -3.234302 0.217328 0.912487 -18.293889 0.494373 -25.957453 -1.243768 5.159345 14.264673 -0.866751 7.657955 8.234738 1.064900 6.560500 18.419700 0.676564 -1.337156 1.551757 18.843227 -6.907514 11.074642 -1.211434 -6.759673 21.275791 0.451047 -4.440875 9.127824 -0.682500 5.282200 -14.715100 4.177474 2.981237 7.489742 1.189877 4.370480 1.036232 -3.382992 2.328505 -3.701276 -9.979458 -2.906304 -16.085953 4.500186 -1.750299 24.164428 3.984000 -1.507600 15.469000 -6.779922 -0.641509 -1.469399 -80.746331 6.985046 -4.506198 9.402308 -13.472484 -1.112666 -2.276672 -1.770986 24.678959 19.675428 25.659503 10.267000 -7.125000 0.000000 0.000000 -10.953700 59.449300 -3.894100 5.312425 1.150263 -1.098120 79.252852 5.294788 10.441893 -18.493407 27.053417 -4.717307 0.436628 -0.100974 3.054840 -17.215520 7.633560 -2.441000 7.125000 0.000000 0.000000 6.666400 -21.927300 3.719300 
-37.167216 107.605218 68.319402 -6.482145 71.224115 -2.945842 -3.404327 0.344501 1.188941 -19.796044 1.011851 -23.998547 -1.191582 5.129673 14.436162 -0.595838 6.156028 8.989075 1.643700 8.080700 22.959500 0.545598 -1.337830 1.356120 18.184037 -6.637515 8.446463 -2.405842 -9.020062 27.976712 0.267578 -7.097581 16.655153 -0.192700 2.826700 -7.796700 3.861150 2.709727 7.513767 1.246798 3.989957 1.121994 -3.181614 2.137701 -3.612528 -10.117753 -3.011391 -16.267018 4.196378 -1.773363 24.190433 3.858800 -1.573500 15.523000 -6.882515 -0.618510 -1.374619 -81.302786 6.913890 -14.440934 8.054681 -11.494347 -0.750212 -2.430790 -1.375291 35.096603 17.526111 25.894229 9.145100 -7.125000 0.000000 0.000000 -13.564000 59.130300 -4.737300 5.326127 1.084362 -1.149171 79.709262 4.619518 10.130518 -19.599931 28.441806 -5.276217 0.440740 -0.059149 1.653573 -17.269530 7.274119 -2.325500 7.125000 0.000000 0.000000 6.633800 -22.331700 3.639400 
-33.992616 107.979054 68.979324 -1.850611 72.279685 0.815085 -3.622003 0.466851 1.529307 -21.705673 2.390976 -21.372514 -1.256979 4.592509 13.275188 -0.393885 4.844050 9.342189 2.564800 9.954700 28.830200 0.339363 -1.338541 1.124421 16.741617 -4.322222 4.482084 -4.450569 -11.960032 37.753711 -0.678475 -7.316624 23.878316 -0.257200 3.262900 -9.011700 1.920171 2.909060 8.011023 1.108801 4.086167 1.328021 -2.477147 2.177120 -3.710755 -10.355918 -3.278241 -16.352066 4.337161 -2.082226 23.813568 3.888500 -1.693800 15.400800 -6.900323 -0.590731 -1.374074 -81.744054 7.333078 -14.652051 7.983162 -11.384513 -0.729202 -2.480055 -1.440653 37.143730 16.559029 27.362805 9.035900 -7.125000 0.000000 0.000000 -15.758600 60.441200 -6.021400 5.317491 1.061542 -1.153480 80.146664 4.255258 10.650467 -20.323395 29.324302 -5.660308 0.420186 -0.062704 1.129778 -16.703762 7.921772 -2.443600 7.125000 0.000000 0.000000 7.047400 -21.678200 3.975200 
-30.915384 108.259734 69.505218 5.634461 74.318335 7.881272 -3.851204 0.513207 1.848293 -24.589700 4.273737 -18.592632 -1.406076 3.421676 10.533883 0.027030 1.730551 10.255311 2.557300 9.941300 28.786800 0.083100 -1.396409 0.908959 14.636453 -2.518588 -0.973517 -7.172025 -14.755280 48.535071 -1.410392 -8.646110 28.718517 -0.000700 0.170200 -0.467600 -0.251002 2.743277 7.894934 0.899640 3.659565 1.473825 -1.670407 1.944568 -3.576748 -10.641423 -3.430454 -16.194542 4.414431 -2.228689 23.301253 3.916700 -1.758700 15.123300 -6.878556 -0.597627 -1.437458 -82.044003 7.946257 -4.991143 8.674041 -12.232967 -0.887849 -2.095331 -1.845597 29.334592 14.810509 26.494325 7.803500 -7.125000 0.000000 0.000000 -17.242400 59.172700 -6.082900 5.291582 1.022853 -1.132686 80.258254 4.383851 11.545991 -20.491974 29.532999 -5.759438 0.389938 -0.083930 1.968919 -15.929520 8.538441 -2.505900 7.125000 0.000000 0.000000 7.614400 -21.062800 4.407500 
-27.967368 108.209850 70.025100 11.801234 76.796182 13.300767 -3.929271 0.606325 2.096594 -26.138784 4.659250 -15.328480 -1.426086 2.761300 9.132453 0.198259 -0.473485 9.853150 2.110600 9.092700 26.085800 -0.098318 -1.466661 0.773832 13.317543 -2.173392 -5.855153 -9.664340 -16.644548 57.380591 -0.694167 -10.560590 25.338482 -0.013000 -0.735400 2.021000 -1.288624 2.172321 8.335603 0.805845 2.823215 1.609809 -1.178489 1.501824 -3.644923 -10.697923 -3.285030 -15.948664 4.338527 -2.016096 22.998289 3.902600 -1.674700 14.882500 -6.792756 -0.649587 -1.518300 -82.102237 8.566958 5.816396 10.030023 -14.200371 -1.305751 -1.456184 -2.084401 20.342592 12.336981 23.570103 5.778400 -7.125000 0.000000 0.000000 -18.153500 55.658400 -4.863800 5.263199 0.985586 -1.106214 80.520173 4.774054 12.617992 -20.250105 29.242227 -5.639464 0.359856 -0.130204 4.054743 -15.405463 9.398637 -2.666500 7.125000 0.000000 0.000000 7.989400 -20.171100 4.790700 
-25.176822 108.059592 70.601484 17.046005 79.465790 17.962343 -3.927203 0.677302 2.282835 -26.789828 4.736657 -12.724386 -1.384482 2.515370 8.766488 0.312263 -2.540941 8.755994 1.030600 6.457300 18.117300 -0.206897 -1.497251 0.698228 12.895500 -1.778116 -10.531136 -11.443208 -17.748608 63.607592 0.276927 -10.456191 18.355859 -0.027600 -1.073200 2.950300 -1.550211 1.711216 8.821272 0.775527 2.209514 1.651758 -0.971629 1.163601 -3.839885 -10.571988 -3.317911 -15.604703 4.241354 -2.114219 23.162959 3.821500 -1.703600 14.882100 -6.671350 -0.756784 -1.567332 -81.940528 8.297969 13.554915 11.667514 -16.707223 -1.913954 -1.327319 -2.224185 14.333383 14.071763 23.377725 6.581200 -7.125000 0.000000 0.000000 -16.203400 55.858200 -4.399300 5.221389 0.994924 -1.088638 81.220692 4.610534 12.322777 -20.205323 29.194030 -5.624489 0.323912 -0.153955 5.618878 -14.662688 9.824395 -2.646800 7.125000 0.000000 0.000000 8.530600 -19.758800 5.201900 
